# xmcd
#
# Track frame offsets:
#	150
#	15277
#	31852
#	47365
#	63272
#	69552
#	78386
#	85341
#	94856
#	106946
#	125093
#	141972
#	153252
#	163492
#	177844
#	190267
#	205617
#	218567
#	239493
#	250842
#	266099
#	274106
#	286896
#	299840
#	315093
#	332582
#
# Disc length: 4572 seconds
#
# Revision: 1
# Processed by: cddbd v1.5.2PL0 Copyright (c) Steve Scherf et al.
# Submitted via: audiograbber 1.83.01
#
DISCID=7211da1a
DTITLE=Aviões do Forró - Em Vitoria da Conquista
DYEAR=2007
DGENRE=Forro
TTITLE0=Vem Junto Com Avião
TTITLE1=Indecisão
TTITLE2=Tome, Tome
TTITLE3=Não Quero Me Amarrar
TTITLE4=Tum Tarará
TTITLE5=Ei Gatinha
TTITLE6=Ilusão
TTITLE7=Jeito de Amar
TTITLE8=Meu Bebê
TTITLE9=Gostosão
TTITLE10=Como Vou Deixar Você
TTITLE11=Tá Rolando Um Zum Zum Zum
TTITLE12=Adultério
TTITLE13=Bebendo Pinga e Cerveja
TTITLE14=Olha a Barriguinha
TTITLE15=Bateu Levou
TTITLE16=Amores, Aventuras e Paixões
TTITLE17=Amor Covarde
TTITLE18=Agora Com Você
TTITLE19=Nós Dois
TTITLE20=Cego, Surdo e Mudo
TTITLE21=Você Não Merece
TTITLE22=Vai Dar Amor
TTITLE23=Amigo Apaixonado
TTITLE24=Conversa - Indecisão
TTITLE25=Tome, Tome
EXTD=By Kusteleta
EXTT0=
EXTT1=
EXTT2=
EXTT3=
EXTT4=
EXTT5=
EXTT6=
EXTT7=
EXTT8=
EXTT9=
EXTT10=
EXTT11=
EXTT12=
EXTT13=
EXTT14=
EXTT15=
EXTT16=
EXTT17=
EXTT18=
EXTT19=
EXTT20=
EXTT21=
EXTT22=
EXTT23=
EXTT24=
EXTT25=
PLAYORDER=
